<?xml version="1.0" encoding="UTF-8"?>
<svg width="22px" height="22px" viewBox="0 0 22 22" version="1.1" xmlns="http://www.w3.org/2000/svg">
    <!-- Generator: Sketch 53.2 (72643) - https://sketchapp.com -->
    <title>Style</title>
    <desc>Created with Sketch.</desc>
    <g id="LineUp-Mobile-nouveau-design" stroke="none" stroke-width="1" fill="none" fill-rule="evenodd">
        <g id="Prendre-ticket" transform="translate(-323.000000, -65.000000)" fill="#FFFFFF">
            <path d="M344.5,82 C342.014719,82 340,79.9852814 340,77.5 L340,74.5 C339.99608,71.9441516 338.373505,69.6713435 335.9575,68.8375 C336.145608,68.505655 336.246261,68.1314337 336.25,67.75 C336.25,66.5073593 335.242641,65.5 334,65.5 C332.757359,65.5 331.75,66.5073593 331.75,67.75 C331.753739,68.1314337 331.854392,68.505655 332.0425,68.8375 C329.626495,69.6713435 328.00392,71.9441516 328,74.5 L328,77.5 C328,79.9852814 325.985281,82 323.5,82 L323.5,83.5 L330.325,83.5 C330.681451,85.2462485 332.217743,86.5003638 334,86.5 C335.821643,86.6121791 337.424106,85.3067103 337.6825,83.5 L344.5,83.5 L344.5,82 Z M333.25,67.75 C333.25,67.3357864 333.585786,67 334,67 C334.414214,67 334.75,67.3357864 334.75,67.75 C334.75,68.1642135 334.414214,68.5 334,68.5 C333.585786,68.5 333.25,68.1642135 333.25,67.75 Z M334,85 C333.048809,84.9973268 332.202061,84.3967965 331.885,83.5 L336.145,83.5 C335.892634,84.4569989 334.985489,85.0913659 334,85 Z M327.4675,82 C328.759421,80.8612079 329.499715,79.222181 329.5,77.5 L329.5,74.5 C329.5,72.0147186 331.514719,70 334,70 C336.485281,70 338.5,72.0147186 338.5,74.5 L338.5,77.5 C338.500285,79.222181 339.240579,80.8612079 340.5325,82 L327.4675,82 Z" id="Style"></path>
        </g>
    </g>
</svg>
