<?xml version="1.0" encoding="UTF-8"?>
<svg xmlns:xlink="http://www.w3.org/1999/xlink" width="375px" height="440px" viewBox="0 0 375 440" version="1.1" xmlns="http://www.w3.org/2000/svg">
    <!-- Generator: Sketch 53.2 (72643) - https://sketchapp.com -->
    <title>Group 6</title>
    <desc>Created with Sketch.</desc>
    <defs>
        <path d="M0,0 L375,0 L374.999859,395.226703 L371.385453,390.888316 C368.791427,387.774696 364.164466,387.353482 361.050846,389.947508 C360.476253,390.426214 359.978218,390.989948 359.574,391.619174 L358.415535,393.422501 C356.923018,395.745829 353.829665,396.419335 351.506336,394.926818 C350.889919,394.530829 350.368057,394.004211 349.977676,393.384227 L348.823256,391.550833 C347.021572,388.689486 343.241439,387.830459 340.380093,389.632143 C339.582089,390.134616 338.910942,390.814638 338.418995,391.619174 L337.475371,393.162388 C336.034816,395.518288 332.957182,396.260322 330.601282,394.819767 C329.944245,394.41801 329.388894,393.869908 328.97854,393.218206 L327.928649,391.550825 C326.126959,388.689477 322.346818,387.830454 319.48547,389.632144 C318.687468,390.134618 318.016323,390.814639 317.524376,391.619174 L316.580759,393.162377 C315.140205,395.518277 312.06257,396.260311 309.70667,394.819756 C309.049631,394.417998 308.494279,393.869894 308.083924,393.218189 L307.034052,391.550833 C305.232369,388.689486 301.452236,387.830459 298.590889,389.632143 C297.792885,390.134616 297.121739,390.814638 296.629791,391.619174 L295.686167,393.162388 C294.245613,395.518288 291.167979,396.260322 288.812079,394.819767 C288.155041,394.41801 287.59969,393.869908 287.189336,393.218206 L286.139445,391.550825 C284.337755,388.689477 280.557615,387.830454 277.696266,389.632144 C276.898264,390.134618 276.227119,390.814639 275.735173,391.619174 L274.791552,393.162382 C273.350998,395.518282 270.273363,396.260316 267.917463,394.819762 C267.260425,394.418004 266.705073,393.869901 266.294719,393.218197 L265.244838,391.550829 C263.443151,388.689481 259.663014,387.830457 256.801666,389.632144 C256.003663,390.134617 255.332518,390.814638 254.840571,391.619174 L253.89695,393.162382 C252.456396,395.518282 249.378761,396.260316 247.022862,394.819762 C246.365823,394.418004 245.810471,393.869901 245.400117,393.218197 L244.350236,391.550829 C242.548549,388.689481 238.768412,387.830457 235.907065,389.632144 C235.109061,390.134617 234.437916,390.814638 233.945969,391.619174 L233.002348,393.162382 C231.561794,395.518282 228.48416,396.260316 226.12826,394.819762 C225.471221,394.418004 224.91587,393.869901 224.505515,393.218197 L223.455634,391.550829 C221.653947,388.689481 217.87381,387.830457 215.012463,389.632144 C214.21446,390.134617 213.543314,390.814638 213.051367,391.619174 L212.107747,393.162382 C210.667192,395.518282 207.589558,396.260316 205.233658,394.819762 C204.57662,394.418004 204.021268,393.869901 203.610914,393.218197 L202.48589,391.431492 C200.757555,388.686638 197.131318,387.862586 194.386464,389.590922 C193.580302,390.098532 192.90972,390.794628 192.432553,391.619174 L191.596347,393.064138 C190.21321,395.4542 187.154428,396.270473 184.764367,394.887336 C184.098071,394.501748 183.529808,393.967516 183.103862,393.326269 L181.833336,391.413539 C179.915501,388.526309 176.020225,387.740459 173.132994,389.658294 C172.368456,390.166137 171.72461,390.83549 171.24684,391.619174 L170.315634,393.146627 C168.878205,395.504435 165.801557,396.25055 163.443749,394.81312 C162.784267,394.41107 162.226895,393.861702 161.815348,393.208104 L160.771815,391.550822 C158.970127,388.689476 155.189992,387.830455 152.328647,389.632143 C151.530644,390.134617 150.859499,390.814638 150.367553,391.619174 L149.423936,393.162379 C147.983383,395.51828 144.90575,396.260316 142.549849,394.819763 C141.89281,394.418007 141.337458,393.869904 140.927103,393.2182 L139.877213,391.550822 C138.075525,388.689476 134.29539,387.830455 131.434045,389.632143 C130.636042,390.134617 129.964897,390.814638 129.472952,391.619174 L128.529334,393.162379 C127.088781,395.51828 124.011148,396.260316 121.655247,394.819763 C120.998208,394.418007 120.442856,393.869904 120.032501,393.2182 L118.982613,391.550823 C117.180923,388.689476 113.400786,387.830454 110.539439,389.632144 C109.741436,390.134618 109.070292,390.814639 108.578346,391.619174 L107.580619,393.250869 C106.140065,395.606769 103.062431,396.348804 100.706531,394.90825 C100.066262,394.516747 99.5223358,393.986136 99.1150884,393.355764 L97.8704708,391.429239 C96.0495828,388.610713 92.2885953,387.801969 89.4700701,389.622857 C88.6833783,390.131093 88.024834,390.814321 87.5458761,391.619174 L86.7130371,393.018697 C85.3008769,395.391725 82.2323751,396.170663 79.8593465,394.758503 C79.1800966,394.35429 78.6063553,393.794797 78.1851907,393.125926 L77.1934062,391.550825 C75.3917186,388.689479 71.6115826,387.830456 68.7502362,389.632143 C67.9522334,390.134617 67.2810882,390.814638 66.7891419,391.619174 L65.7679406,393.28926 C64.327387,395.64516 61.2497529,396.387195 58.8938526,394.946641 C58.2609531,394.559645 57.7220981,394.036665 57.3163539,393.415617 L55.9837006,391.375808 C54.1548124,388.576442 50.4028715,387.789715 47.6035061,389.618603 C46.8216932,390.129379 46.1686323,390.814084 45.695394,391.619174 L44.9110908,392.953458 C43.5117484,395.334067 40.4474919,396.129541 38.0668823,394.730199 C37.3776037,394.325035 36.7955395,393.760481 36.3695177,393.083895 L35.4041989,391.550826 C33.6025107,388.689479 29.8223736,387.830455 26.9610262,389.632144 C26.1630235,390.134617 25.4918783,390.814639 24.9999319,391.619174 L24.0563112,393.162383 C22.6157571,395.518283 19.5381229,396.260317 17.1822229,394.819763 C16.5251847,394.418006 15.969833,393.869904 15.5594787,393.2182 L14.5526289,391.619174 C12.5115939,388.377708 8.22928114,387.404567 4.98781563,389.445602 C4.29534278,389.881628 3.68549519,390.436757 3.18648236,391.085311 L5.83846581e-13,395.226703 L0,0 Z" id="path-1"></path>
        <filter x="-9.7%" y="-8.2%" width="119.5%" height="117.8%" filterUnits="objectBoundingBox" id="filter-2">
            <feOffset dx="0" dy="4" in="SourceAlpha" result="shadowOffsetOuter1"></feOffset>
            <feGaussianBlur stdDeviation="11.5" in="shadowOffsetOuter1" result="shadowBlurOuter1"></feGaussianBlur>
            <feColorMatrix values="0 0 0 0 0   0 0 0 0 0   0 0 0 0 0  0 0 0 0.10583673 0" type="matrix" in="shadowBlurOuter1"></feColorMatrix>
        </filter>
    </defs>
    <g id="LineUp-Mobile-nouveau-design" stroke="none" stroke-width="1" fill="none" fill-rule="evenodd">
        <g id="Confirmation_Heure_Passage" transform="translate(0.000000, -95.000000)">
            <g id="Group-6" transform="translate(0.000000, 114.000000)">
                <g id="Rectangle-19">
                    <use fill="black" fill-opacity="1" filter="url(#filter-2)" xlink:href="#path-1"></use>
                    <use fill="#FFFFFF" fill-rule="evenodd" xlink:href="#path-1"></use>
                </g>
                <g id="Group" transform="translate(19.000000, 142.000000)">
                    <text id="Horaire-validé-!" font-family="Avenir-Medium, Avenir" font-size="21" font-weight="400" letter-spacing="0.8850001" fill="#000000">
                        <tspan x="89.7639992" y="125">Horaire validé !</tspan>
                    </text>
                    <text id="Merci-d’avoir-utilis" font-family="HelveticaNeue-Medium, Helvetica Neue" font-size="9" font-weight="400" line-spacing="1" letter-spacing="0.5516883" fill="#000000">
                        <tspan x="0" y="168">Merci d’avoir utilisé le service de réservation de tickets virtuels LineUp.</tspan>
                        <tspan x="66.4828245" y="185">Un ticket virtuel vous sera bientôt octroyé !</tspan>
                    </text>
                    <g id="tick-blue" transform="translate(128.000000, 0.000000)">
                        <g id="Group-21">
                            <circle id="Oval" stroke="#20AB2C" stroke-width="3" fill="#FFFFFF" cx="40" cy="40" r="40"></circle>
                            <path d="M53.6313354,27.7205323 L33.5052909,47.0613225 L25.3693964,39.2443612 C24.3689975,38.2848236 22.7499662,38.2838858 21.7502992,39.2452989 C20.7499003,40.2060087 20.7499003,41.7628837 21.7502992,42.7242968 L31.6957423,52.2802882 C32.1950879,52.7601742 32.8495795,53 33.5052909,53 C34.1597825,53 34.8164696,52.7601742 35.3158152,52.2793504 C35.316791,52.277475 35.3184986,52.2755995 35.3204501,52.2730207 L57.2504327,31.1985925 C58.2498558,30.2378827 58.2498558,28.6803044 57.2504327,27.7205323 C56.2507656,26.7598226 54.6300267,26.7598226 53.6313354,27.7205323 Z" id="Fill-4" fill="#20AB2C"></path>
                        </g>
                    </g>
                </g>
            </g>
        </g>
    </g>
</svg>
