<?xml version="1.0" encoding="UTF-8"?>
<svg width="375px" height="703px" viewBox="0 0 375 703" version="1.1" xmlns="http://www.w3.org/2000/svg">
    <!-- Generator: Sketch 53.2 (72643) - https://sketchapp.com -->
    <title>Group</title>
    <desc>Created with Sketch.</desc>
    <defs>
        <linearGradient x1="45.0126178%" y1="30.9733679%" x2="71.8850551%" y2="68.2557142%" id="linearGradient-1">
            <stop stop-color="#F01452" offset="0%"></stop>
            <stop stop-color="#830D2E" offset="100%"></stop>
        </linearGradient>
    </defs>
    <g id="LineUp-Mobile-nouveau-design" stroke="none" stroke-width="1" fill="none" fill-rule="evenodd">
        <g id="Splash-page" transform="translate(0.000000, -109.000000)">
            <g id="Group-2" transform="translate(0.000000, 95.000000)">
                <g id="Group">
                    <g id="bg" transform="translate(0.000000, 216.000000)">
                        <g id="map">
                            <path d="M0,314.739749 L89.5889821,352.235536 C108.400178,360.108609 129.901322,358.061064 146.888376,346.778939 L309.763337,238.603873 C329.085866,225.770618 355.153279,231.031215 367.986533,250.353743 C372.560281,257.240256 375,265.32341 375,273.590406 L375,285.605918 L375,501 L0,501 L0,314.739749 Z" id="Rectangle" fill="url(#linearGradient-1)"></path>
                            <path d="M149.697022,0.425825713 C150.02119,0.393452498 149.357021,0.40092324 149.697022,0.425825713 M81.3142853,11.3737832 C80.6334496,11.4501508 79.9759474,11.4883345 79.3117784,11.3737832 M89.4076466,0.425825713 L106.578539,0.425825713 M144.192836,0.425825713 L149.697022,0.425825713 M141.704494,0.425825713 L127.406111,0.425825713 M115.307736,3.16260756 L117.710245,3.16260756 M119.597751,3.16260756 L122.571928,3.16260756 M91.5643208,3.16260756 L93.0926594,3.16260756 M104.584366,3.16260756 L94.1726631,3.16260756 M140.863658,3.16260756 L123.685265,3.16260756 M151.769529,3.16260756 L149.241187,3.16260756 M161.862897,3.16260756 L157.741216,3.16260756 M146.32451,3.16260756 L147.312014,3.16260756 M79.2267781,3.16260756 L84.5259631,3.16260756 M78.326775,5.8993894 L81.0017842,5.8993894 M235.548152,5.8993894 L232.681475,5.8993894 M229.144796,5.8993894 L222.688941,5.8993894 M277.781631,5.8993894 L272.164112,5.8993894 M240.536503,5.8993894 L237.849827,5.8993894 M155.814543,5.8993894 L105.411035,5.8993894 M93.9859958,5.8993894 L100.461852,5.8993894 M84.9359645,5.8993894 L87.6184738,5.8993894 M284.557488,8.63617124 L282.325814,8.63617124 M273.470783,8.63617124 L278.489967,8.63617124 M79.0859443,8.63617124 L85.1817987,8.63617124 M156.05871,8.63617124 L105.376035,8.63617124 M100.346018,8.63617124 L98.0251764,8.63617124 M93.944329,8.63617124 L89.2001459,8.63617124 M189.113825,8.63617124 L186.461316,8.63617124 M65.3517301,8.63617124 L68.9100758,8.63617124 M203.357207,8.63617124 L196.183016,8.63617124 M193.831341,11.3737832 L192.715504,11.3737832 M196.238016,11.3737832 L201.907202,11.3737832 M71.4684179,11.3737832 L65.0158956,11.3737832 M83.908461,11.3737832 L87.2068057,11.3737832 M60.8767146,11.3737832 L56.9533678,11.3737832 M103.238528,11.3737832 L152.972866,11.3737832 M96.1401699,11.3737832 L89.0743122,11.3737832 M81.3142853,11.3737832 L79.3117784,11.3737832 M280.482474,11.3737832 L285.339157,11.3737832 M73.4900916,11.3737832 L74.8984298,11.3737832 M69.7467453,14.1113951 L68.6492415,14.1113951 M193.831341,14.1113951 L190.133828,14.1113951 M72.8034226,14.1113951 L70.8800826,14.1113951 M285.670825,14.1113951 L281.668311,14.1113951 M60.3300461,14.1113951 L58.1367052,14.1113951 M47.5141684,14.1113951 L52.8416869,14.1113951 M81.8676206,14.1113951 L92.6376578,14.1113951 M201.003866,14.1113951 L197.273853,14.1113951 M102.776026,14.1113951 L154.306204,14.1113951 M288,16.8481769 L272.806614,16.8481769 M72.457588,16.8481769 L69.6275782,16.8481769 M57.8683709,16.8481769 L53.1833547,16.8481769 M240.136501,16.8481769 L246.45319,16.8481769 M155.131207,16.8481769 L156.291211,16.8481769 M63.5933907,16.8481769 L60.1992123,16.8481769 M111.150222,16.8481769 L153.586202,16.8481769 M77.4101052,16.8481769 L91.6868212,16.8481769 M47,16.8481769 L51.5766825,16.8481769 M66.0683993,16.8481769 L67.7292383,16.8481769 M114.3969,19.5849588 L154.966207,19.5849588" id="Stroke-4" stroke="#000000" stroke-width="2.16" stroke-linecap="round" stroke-dasharray="0,3.24"></path>
                            <path d="M237.455848,19.42889 L243.738972,19.42889 M74.9182699,19.42889 L78.0054797,19.42889 M288.660717,19.42889 L267.373018,19.42889 M63.9014801,19.42889 L56.21105,19.42889 M334.455443,19.42889 L330.858158,19.42889 M92.2683551,19.42889 L79.7598041,19.42889 M320.740271,19.42889 L325.703053,19.42889 M7.36590673,22.2569909 L31.9657504,22.2569909 M116.064621,22.2569909 L150.526478,22.2569909 M323.377611,22.2569909 L327.269235,22.2569909 M234.259934,22.2569909 L240.775519,22.2569909 M154.791878,22.2569909 L152.336827,22.2569909 M76.7344724,22.2569909 L81.0408457,22.2569909 M85.0804746,22.2569909 L87.2303165,22.2569909 M287.830381,22.2569909 L261.287234,22.2569909 M54.6749708,22.2569909 L43.9884756,22.2569909 M94.209986,22.2569909 L91.2950312,22.2569909 M66.1483199,22.2569909 L63.9533238,22.2569909 M291.538043,22.2569909 L293.513958,22.2569909 M72.4172287,22.2569909 L68.9470444,22.2569909 M3.61309057,25.0850918 L36.4059139,25.0850918 M294.241442,25.0850918 L261.792292,25.0850918 M256.139655,25.0850918 L253.864385,25.0850918 M238.501921,25.0850918 L230.42099,25.0850918 M256.910621,25.0850918 L259.000257,25.0850918 M116.76033,25.0850918 L150.748068,25.0850918 M58.4620707,25.0850918 L43.4600042,25.0850918 M76.8164189,25.0850918 L79.4487418,25.0850918 M87.4151143,25.0850918 L85.2226268,25.0850918 M253.085893,25.0850918 L248.736874,25.0850918 M74.0377629,25.0850918 L68.8542274,25.0850918 M67.8048103,25.0850918 L62.7826592,25.0850918 M326.758323,25.0850918 L322.10744,25.0850918 M60.6863334,25.0850918 L61.6061413,25.0850918 M321.241148,27.9131927 L335.267382,27.9131927 M148.208562,27.9131927 L121.182098,27.9131927 M1.7517339,27.9131927 L38.9780312,27.9131927 M258.095501,27.9131927 L248.949266,27.9131927 M295.997439,27.9131927 L258.660765,27.9131927 M153.148766,27.9131927 L149.266341,27.9131927 M84.2785694,27.9131927 L100.910368,27.9131927 M236.693244,27.9131927 L230.706967,27.9131927 M76.2076733,27.9131927 L77.4611206,27.9131927 M365.020659,27.9131927 L368,27.9131927 M69.6218489,27.9131927 L52.3946835,27.9131927 M72.22825,30.7421513 L73.9733764,30.7421513 M249.088073,30.7421513 L251.525564,30.7421513 M1,30.7421513 L38.6469004,30.7421513 M87.7788565,30.7421513 L87.3866839,30.7421513 M76.6909906,30.7421513 L79.7656575,30.7421513 M149.504655,30.7421513 L119.587485,30.7421513 M354.033972,30.7421513 L350.124788,30.7421513 M92.4748938,30.7421513 L105.891546,30.7421513 M342.494564,30.7421513 L254.116078,30.7421513 M238.843922,30.7421513 L241.860892,30.7421513 M69.5273596,30.7421513 L52.0041832,30.7421513 M194.632102,30.7421513 L197.141505,30.7421513 M211.719624,30.7421513 L213.427958,30.7421513 M199.090662,30.7421513 L208.701818,30.7421513 M118.562318,33.57111 L141.660366,33.57111 M43.7944798,33.57111 L56.2361357,33.57111 M105.431642,33.57111 L92.2315628,33.57111 M86.8398163,33.57111 L87.2737983,33.57111" id="Stroke-5" stroke="#000000" stroke-width="2.16" stroke-linecap="round" stroke-dasharray="0,3.24"></path>
                            <path d="M228.732975,33.4017825 L248.274446,33.4017825 M189.188141,33.4017825 L191.820844,33.4017825 M211.119257,33.4017825 L193.223226,33.4017825 M224.673668,33.4017825 L221.472161,33.4017825 M74.3790755,33.4017825 L70.3180979,33.4017825 M357.009585,33.4017825 L254.808594,33.4017825 M1,33.4017825 L37.8403001,33.4017825 M81.9029928,33.4017825 L77.6290269,33.4017825 M86.6071117,36.0511359 L63.7388464,36.0511359 M192.420552,36.0511359 L209.970791,36.0511359 M248.097373,36.0511359 L222.690788,36.0511359 M254.601453,36.0511359 L365.671946,36.0511359 M57.7960542,36.0511359 L5.40927617,36.0511359 M92.476402,36.0511359 L111.830777,36.0511359 M373.894966,36.0511359 L370.838793,36.0511359 M120.351146,36.0511359 L137.934795,36.0511359 M150.535352,38.7004894 L161.563971,38.7004894 M93.3316963,38.7004894 L104.403749,38.7004894 M202.274812,38.7004894 L212.281088,38.7004894 M375,38.7004894 L366.867187,38.7004894 M190.24306,38.7004894 L198.872846,38.7004894 M86.6547208,38.7004894 L6.38568152,38.7004894 M135.890942,38.7004894 L121.167184,38.7004894 M361.874907,38.7004894 L217.678463,38.7004894 M215.51684,41.3498429 L203.957003,41.3498429 M184.49321,41.3498429 L196.38297,41.3498429 M123.632002,41.3498429 L133.749365,41.3498429 M150.167007,41.3498429 L160.007904,41.3498429 M362.310071,41.3498429 L215.982909,41.3498429 M7.42055426,41.3498429 L77.2556709,41.3498429 M84.6718412,41.3498429 L90.8710546,41.3498429 M103.397274,41.3498429 L94.1360405,41.3498429 M105.701725,41.3498429 L106.841839,41.3498429 M95.4432042,43.9991964 L106.105985,43.9991964 M364.119219,43.9991964 L349.811415,43.9991964 M5.882862,43.9991964 L80.6910474,43.9991964 M130.711567,43.9991964 L124.26512,43.9991964 M347.308175,43.9991964 L205.467132,43.9991964 M195.148473,43.9991964 L181.892246,43.9991964 M340.327169,46.6485499 L206.960556,46.6485499 M105.775227,46.6485499 L93.2623707,46.6485499 M181.067021,46.6485499 L194.489462,46.6485499 M357.225915,46.6485499 L349.494856,46.6485499 M80.9541507,46.6485499 L20.2107126,46.6485499 M7.39633205,46.6485499 L15.2159273,46.6485499 M352.380639,49.298707 L346.661693,49.298707 M194.187938,49.298707 L187.608686,49.298707 M327.168667,49.298707 L204.017976,49.298707 M6.83170415,49.298707 L12.6517148,49.298707 M21.3140757,49.298707 L81.2038899,49.298707 M338.465401,49.298707 L331.77005,49.298707 M112.907412,49.298707 L93.0485471,49.298707 M348.065746,51.9488641 L342.991612,51.9488641 M185.262473,51.9488641 L186.953851,51.9488641 M169.873857,51.9488641 L173.921471,51.9488641 M188.327,51.9488641 L194.106083,51.9488641 M92.967528,51.9488641 L114.878599,51.9488641 M200.141588,51.9488641 L197.955743,51.9488641 M320.738925,51.9488641 L201.761135,51.9488641 M4.06870253,51.9488641 L10.3840155,51.9488641 M81.9105101,51.9488641 L24.2073761,51.9488641 M317.794674,54.5982175 L196.927552,54.5982175 M29.116966,54.5982175 L84.8814885,54.5982175 M189.150555,54.5982175 L185.243263,54.5982175" id="Stroke-6" stroke="#000000" stroke-width="2.16" stroke-linecap="round" stroke-dasharray="0,3.24"></path>
                            <path d="M346,54.3490808 L338.804592,54.3490808 M192.136478,54.3490808 L190.649383,54.3490808 M92.1434861,54.3490808 L115.118443,54.3490808 M171.87397,54.3490808 L168.439647,54.3490808 M2,54.3490808 L7.78083314,54.3490808 M169.93091,56.6509192 L172.772563,56.6509192 M112.187598,56.6509192 L91.1748736,56.6509192 M165.684686,56.6509192 L167.813633,56.6509192" id="Stroke-7" stroke="#000000" stroke-width="2.16" stroke-linecap="round" stroke-dasharray="0,3.24"></path>
                            <path d="M317.661971,57.4190598 L193.990749,57.4190598 M324.16144,57.4190598 L326.813623,57.4190598 M184.79086,57.4190598 L187.23679,57.4190598 M36,57.4190598 L87.0135578,57.4190598 M344,57.4190598 L336.804426,57.4190598 M322.75842,60.1823403 L328.386303,60.1823403 M164.543121,60.1823403 L166.963269,60.1823403 M112.620552,60.1823403 L43.2088805,60.1823403 M174.321849,60.1823403 L169.27031,60.1823403 M320.670938,60.1823403 L182.196894,60.1823403 M341.689632,60.1823403 L337.448136,60.1823403 M40.6673093,62.9456208 L43.1930788,62.9456208 M320.71668,62.9456208 L175.184287,62.9456208 M112.817657,62.9456208 L48.0749579,62.9456208 M169.76432,62.9456208 L172.976214,62.9456208 M328.315612,62.9456208 L323.605888,62.9456208 M115.468177,62.9456208 L117.978144,62.9456208 M327.482283,65.7097394 L323.081938,65.7097394 M319.722839,65.7097394 L170.349813,65.7097394 M40.1766264,65.7097394 L44.7724125,65.7097394 M100.4932,65.7097394 L48.3527344,65.7097394 M111.938586,65.7097394 L101.530287,65.7097394 M114.94589,65.7097394 L119.781196,65.7097394 M40.673131,68.4730199 L112.708709,68.4730199 M325.854712,68.4730199 L323.04285,68.4730199 M318.798858,68.4730199 L172.730872,68.4730199 M191.743588,71.2363004 L317.493143,71.2363004 M188.713829,71.2363004 L174.151358,71.2363004 M41.7992067,71.2363004 L110.744314,71.2363004 M329.727781,71.2363004 L322.343419,71.2363004 M194.071421,74.0004191 L312.127234,74.0004191 M43.319492,74.0004191 L104.965899,74.0004191 M192.072927,74.0004191 L187.294175,74.0004191 M178.170799,74.0004191 L165.600168,74.0004191 M196.089042,76.7636996 L198.643088,76.7636996 M175.84962,76.7636996 L165.514507,76.7636996 M45.0443672,76.7636996 L98.2485331,76.7636996 M321.962516,76.7636996 L320.390667,76.7636996 M202.027969,76.7636996 L301.214113,76.7636996 M310.555385,76.7636996 L302.844179,76.7636996 M198.248047,79.5269801 L193.555788,79.5269801 M173.562538,79.5269801 L166.817727,79.5269801 M310.090484,79.5269801 L303.911206,79.5269801 M202.941138,79.5269801 L298.503714,79.5269801 M188.254749,79.5269801 L190.927723,79.5269801 M46.7966874,79.5269801 L94.8195744,79.5269801 M321.753767,79.5269801 L319.174771,79.5269801 M318.143506,82.2910987 L314.889197,82.2910987 M303.273318,82.2910987 L207.647536,82.2910987 M48.378516,82.2910987 L94.3105948,82.2910987 M309.807718,82.2910987 L305.307573,82.2910987 M188.196532,82.2910987 L175.693266,82.2910987 M189.174572,85.0543792 L163.212456,85.0543792 M49.6351633,85.0543792 L94.5667479,85.0543792 M207.689119,85.0543792 L302.888257,85.0543792 M60.443494,87.8176597 L95.0582625,87.8176597 M50.8335939,87.8176597 L54.9603204,87.8176597 M193.648103,87.8176597 L206.273623,87.8176597 M207.786424,87.8176597 L302.422524,87.8176597 M190.950178,87.8176597 L159.87997,87.8176597 M52.1060428,90.5809402 L55.3037984,90.5809402 M301.87113,90.5809402 L232.415379,90.5809402 M81.8231306,90.5809402 L95.3044356,90.5809402 M77.1350296,90.5809402 L62.4469772,90.5809402" id="Stroke-8" stroke="#000000" stroke-width="2.16" stroke-linecap="round" stroke-dasharray="0,3.24"></path>
                            <path d="M225.723188,90.4190495 L158.28947,90.4190495 M53,93.1822619 L56.9687549,93.1822619 M73.3437354,93.1822619 L63.448184,93.1822619 M301.84603,93.1822619 L240.729546,93.1822619 M228.094241,93.1822619 L157.391546,93.1822619 M84.3487323,93.1822619 L94.2058252,93.1822619 M299.618778,95.9463124 L246.605343,95.9463124 M54.765749,95.9463124 L59.3481685,95.9463124 M229.627566,95.9463124 L156.90747,95.9463124 M78.0641041,95.9463124 L64.8301835,95.9463124 M156.679227,98.7103628 L238.661145,98.7103628 M302.57507,98.7103628 L301.318479,98.7103628 M82.6607365,98.7103628 L66.2740512,98.7103628 M292.51398,98.7103628 L297.567934,98.7103628 M288.663945,98.7103628 L249.229721,98.7103628 M86.3017577,98.7103628 L92.3665033,98.7103628 M236.65294,101.474413 L156.614015,101.474413 M264.894054,101.474413 L250.462066,101.474413 M99.5799891,101.474413 L105.077889,101.474413 M271.549891,101.474413 L287.90397,101.474413 M97.1963952,101.474413 L95.0828473,101.474413 M67.9444898,101.474413 L84.1087844,101.474413 M295.201898,101.474413 L290.185565,101.474413 M262.579017,104.236788 L251.861623,104.236788 M288.092919,104.236788 L273.926797,104.236788 M70.1642168,104.236788 L82.2644463,104.236788 M303.863431,104.236788 L301.714769,104.236788 M99.2748289,104.236788 L106.826917,104.236788 M157.544544,104.236788 L233.556191,104.236788 M261.146018,107 L253.384916,107 M288.959908,107 L278.454872,107 M303.822465,107 L301.022515,107 M158.710841,107 L229.809827,107 M74.0426777,107 L83.1941398,107 M255.089633,109.763212 L260.057474,109.763212 M307.310488,109.763212 L302.126944,109.763212 M77.9328434,109.763212 L94.8487517,109.763212 M282.565757,109.763212 L289.830242,109.763212 M159.974957,109.763212 L227.264874,109.763212 M81.746928,112.526425 L110.846671,112.526425 M298.574545,112.526425 L301.504083,112.526425 M305.614131,112.526425 L303.476338,112.526425 M290.184729,112.526425 L283.625039,112.526425 M257.295147,112.526425 L259.118584,112.526425 M161.341072,112.526425 L229.34916,112.526425 M308.247706,115.290475 L303.864267,115.290475 M162.875233,115.290475 L229.504666,115.290475 M285.485262,115.290475 L287.092161,115.290475 M87.1495178,115.290475 L114.248581,115.290475 M259.200517,115.290475 L261.589963,115.290475 M184.876867,118.053688 L227.684574,118.053688 M281.71298,118.053688 L283.655137,118.053688 M301.106957,118.053688 L298.063715,118.053688 M91.5822834,118.053688 L116.685682,118.053688 M307.754433,118.053688 L306.393335,118.053688 M174.964594,118.053688 L165.093288,118.053688 M277.557785,120.817738 L281.089283,120.817738 M300.082789,120.817738 L292.51398,120.817738 M186.339963,120.817738 L224.58448,120.817738 M91.1776326,120.817738 L118.724821,120.817738 M284.956039,120.817738 L282.581642,120.817738 M308.402376,123.580951 L311,123.580951 M289.946454,123.580951 L300.474063,123.580951 M279.030915,123.580951 L283.702792,123.580951" id="Stroke-9" stroke="#000000" stroke-width="2.16" stroke-linecap="round" stroke-dasharray="0,3.24"></path>
                            <path d="M186.655658,123.416179 L220.978575,123.416179 M91,123.416179 L120.378479,123.416179 M218.437034,126.160467 L187.003105,126.160467 M320.679151,126.160467 L313.42703,126.160467 M298.856808,126.160467 L290.229099,126.160467 M280.5674,126.160467 L285.449197,126.160467 M91.2731134,126.160467 L123.636629,126.160467 M302.742201,126.160467 L300.458739,126.160467 M304.209663,128.904754 L302.543421,128.904754 M217.16501,128.904754 L187.261185,128.904754 M300.035288,128.904754 L301.749137,128.904754 M285.93863,128.904754 L283.30438,128.904754 M92.7263771,128.904754 L130.500377,128.904754 M318.454989,128.904754 L328.483344,128.904754 M217.059774,131.649042 L187.465811,131.649042 M319.81805,131.649042 L332.213388,131.649042 M94.4418965,131.649042 L135.676168,131.649042 M286.02048,131.649042 L295.164349,131.649042 M333.633243,134.394994 L322.748799,134.394994 M96.2225623,134.394994 L138.717999,134.394994 M217.500764,134.394994 L187.643711,134.394994 M289.397231,134.394994 L296.514047,134.394994 M305.786538,134.394994 L308.356476,134.394994 M301.654759,134.394994 L303.523121,134.394994 M97.9372465,137.139281 L138.12333,137.139281 M318.395689,137.139281 L313.833777,137.139281 M217.797263,137.139281 L187.806577,137.139281 M217.56424,139.884401 L187.976124,139.884401 M99.4381171,139.884401 L133.877963,139.884401 M320.974815,139.884401 L312.368821,139.884401 M227.827289,139.884401 L224.698596,139.884401 M327.363329,139.884401 L323.000197,139.884401 M227.713701,142.627856 L223.072444,142.627856 M327.071841,142.627856 L305.365593,142.627856 M100.576507,142.627856 L132.600093,142.627856 M216.560319,142.627856 L188.172398,142.627856 M227.479842,145.372976 L221.929878,145.372976 M101.236322,145.372976 L131.385699,145.372976 M329.613382,145.372976 L302.748047,145.372976 M188.443006,145.372976 L215.483734,145.372976 M221.107197,148.116431 L226.985398,148.116431 M188.903206,148.116431 L214.326135,148.116431 M331.945286,148.116431 L297.099529,148.116431 M350,148.116431 L347.253833,148.116431 M101.351581,148.116431 L130.160447,148.116431 M225.250669,150.860719 L220.671218,150.860719 M100.979078,150.860719 L128.886753,150.860719 M212.996482,150.860719 L189.530448,150.860719 M333.933919,150.860719 L294.780988,150.860719 M335.456505,153.605838 L295.390691,153.605838 M100.571496,153.605838 L127.529539,153.605838 M209.380862,153.605838 L190.322226,153.605838 M208.337686,156.350126 L191.313619,156.350126 M336.332639,156.350126 L293.442983,156.350126 M100.175607,156.350126 L126.013634,156.350126 M99.7822233,159.095246 L124.110193,159.095246 M192.582302,159.095246 L207.214329,159.095246 M336.375235,159.095246 L294.056862,159.095246 M194.35044,161.839533 L205.582331,161.839533 M320.393509,161.839533 L334.403306,161.839533 M99.3921806,161.839533 L116.334396,161.839533 M295.136787,161.839533 L316.114733,161.839533 M307.677451,164.583821 L296.110641,164.583821 M324.87023,164.583821 L331.476733,164.583821" id="Stroke-10" stroke="#000000" stroke-width="2.16" stroke-linecap="round" stroke-dasharray="0,3.24"></path>
                            <path d="M99.1713436,164.413109 L113.638479,164.413109 M98.7820073,167.137979 L111.848533,167.137979 M327.517479,167.137979 L328.173598,167.137979 M361.672357,167.137979 L357.918222,167.137979 M98.392671,169.861195 L111.292457,169.861195 M362,169.861195 L357.583076,169.861195 M330.791405,172.586891 L326.828012,172.586891 M98,172.586891 L106.857192,172.586891" id="Stroke-11" stroke="#000000" stroke-width="2.16" stroke-linecap="round" stroke-dasharray="0,3.24"></path>
                            <path d="M357,175.408988 L352.480535,175.408988 M108.012968,175.408988 L100.160127,175.408988 M330.014813,175.408988 L327.987468,175.408988 M354.992645,178.105856 L349.785182,178.105856 M106.226338,178.105856 L99.1539506,178.105856 M106.558677,180.802723 L97,180.802723 M107.380776,183.500409 L97.7296445,183.500409 M97.885402,186.197277 L108.207873,186.197277 M98.9190651,188.893326 L108.710128,188.893326 M100.793985,191.591012 L107.333299,191.591012" id="Stroke-12" stroke="#000000" stroke-width="2.16" stroke-linecap="round" stroke-dasharray="0,3.24"></path>
                        </g>
                    </g>
                    <text id="Line" font-family="BrushScriptMT, Brush Script MT" font-size="61" font-weight="normal" letter-spacing="0.003261805" fill="#000000">
                        <tspan x="110" y="54.375">Line</tspan>
                    </text>
                    <text id="Up" font-family="BrushScriptMT, Brush Script MT" font-size="61" font-weight="normal" letter-spacing="0.003177083" fill="#7A0020">
                        <tspan x="201" y="54">Up</tspan>
                    </text>
                    <text id="Restez-chez-vous,-pr" font-family="Avenir-Book, Avenir" font-size="16" font-weight="normal" letter-spacing="0.4022857" fill="#9B9B9B" fill-opacity="0.77">
                        <tspan x="58" y="92">Restez chez vous, prenez un ticket</tspan>
                    </text>
                </g>
            </g>
        </g>
    </g>
</svg>
