<?xml version="1.0" encoding="UTF-8"?>
<svg width="375px" height="194px" viewBox="0 0 375 194" version="1.1" xmlns="http://www.w3.org/2000/svg">
    <!-- Generator: Sketch 54 (76480) - https://sketchapp.com -->
    <title>bg</title>
    <desc>Created with Sketch.</desc>
    <g id="LineUp-Mobile-nouveau-design" stroke="none" stroke-width="1" fill="none" fill-rule="evenodd" stroke-dasharray="0,3.24" stroke-linecap="round">
        <g id="Splash-page" transform="translate(0.000000, -310.000000)" stroke="#000000" stroke-width="2.16">
            <g id="bg" transform="translate(1.000000, 311.000000)">
                <g id="map">
                    <path d="M148.697022,0.425825713 C149.02119,0.393452498 148.357021,0.40092324 148.697022,0.425825713 M80.3142853,11.3737832 C79.6334496,11.4501508 78.9759474,11.4883345 78.3117784,11.3737832 M88.4076466,0.425825713 L105.578539,0.425825713 M143.192836,0.425825713 L148.697022,0.425825713 M140.704494,0.425825713 L126.406111,0.425825713 M114.307736,3.16260756 L116.710245,3.16260756 M118.597751,3.16260756 L121.571928,3.16260756 M90.5643208,3.16260756 L92.0926594,3.16260756 M103.584366,3.16260756 L93.1726631,3.16260756 M139.863658,3.16260756 L122.685265,3.16260756 M150.769529,3.16260756 L148.241187,3.16260756 M160.862897,3.16260756 L156.741216,3.16260756 M145.32451,3.16260756 L146.312014,3.16260756 M78.2267781,3.16260756 L83.5259631,3.16260756 M77.326775,5.8993894 L80.0017842,5.8993894 M234.548152,5.8993894 L231.681475,5.8993894 M228.144796,5.8993894 L221.688941,5.8993894 M276.781631,5.8993894 L271.164112,5.8993894 M239.536503,5.8993894 L236.849827,5.8993894 M154.814543,5.8993894 L104.411035,5.8993894 M92.9859958,5.8993894 L99.4618515,5.8993894 M83.9359645,5.8993894 L86.6184738,5.8993894 M283.557488,8.63617124 L281.325814,8.63617124 M272.470783,8.63617124 L277.489967,8.63617124 M78.0859443,8.63617124 L84.1817987,8.63617124 M155.05871,8.63617124 L104.376035,8.63617124 M99.3460178,8.63617124 L97.0251764,8.63617124 M92.944329,8.63617124 L88.2001459,8.63617124 M188.113825,8.63617124 L185.461316,8.63617124 M64.3517301,8.63617124 L67.9100758,8.63617124 M202.357207,8.63617124 L195.183016,8.63617124 M192.831341,11.3737832 L191.715504,11.3737832 M195.238016,11.3737832 L200.907202,11.3737832 M70.4684179,11.3737832 L64.0158956,11.3737832 M82.908461,11.3737832 L86.2068057,11.3737832 M59.8767146,11.3737832 L55.9533678,11.3737832 M102.238528,11.3737832 L151.972866,11.3737832 M95.1401699,11.3737832 L88.0743122,11.3737832 M80.3142853,11.3737832 L78.3117784,11.3737832 M279.482474,11.3737832 L284.339157,11.3737832 M72.4900916,11.3737832 L73.8984298,11.3737832 M68.7467453,14.1113951 L67.6492415,14.1113951 M192.831341,14.1113951 L189.133828,14.1113951 M71.8034226,14.1113951 L69.8800826,14.1113951 M284.670825,14.1113951 L280.668311,14.1113951 M59.3300461,14.1113951 L57.1367052,14.1113951 M46.5141684,14.1113951 L51.8416869,14.1113951 M80.8676206,14.1113951 L91.6376578,14.1113951 M200.003866,14.1113951 L196.273853,14.1113951 M101.776026,14.1113951 L153.306204,14.1113951 M287,16.8481769 L271.806614,16.8481769 M71.457588,16.8481769 L68.6275782,16.8481769 M56.8683709,16.8481769 L52.1833547,16.8481769 M239.136501,16.8481769 L245.45319,16.8481769 M154.131207,16.8481769 L155.291211,16.8481769 M62.5933907,16.8481769 L59.1992123,16.8481769 M110.150222,16.8481769 L152.586202,16.8481769 M76.4101052,16.8481769 L90.6868212,16.8481769 M46,16.8481769 L50.5766825,16.8481769 M65.0683993,16.8481769 L66.7292383,16.8481769 M113.3969,19.5849588 L153.966207,19.5849588" id="Stroke-4"></path>
                    <path d="M236.455848,19.42889 L242.738972,19.42889 M73.9182699,19.42889 L77.0054797,19.42889 M287.660717,19.42889 L266.373018,19.42889 M62.9014801,19.42889 L55.21105,19.42889 M333.455443,19.42889 L329.858158,19.42889 M91.2683551,19.42889 L78.7598041,19.42889 M319.740271,19.42889 L324.703053,19.42889 M6.36590673,22.2569909 L30.9657504,22.2569909 M115.064621,22.2569909 L149.526478,22.2569909 M322.377611,22.2569909 L326.269235,22.2569909 M233.259934,22.2569909 L239.775519,22.2569909 M153.791878,22.2569909 L151.336827,22.2569909 M75.7344724,22.2569909 L80.0408457,22.2569909 M84.0804746,22.2569909 L86.2303165,22.2569909 M286.830381,22.2569909 L260.287234,22.2569909 M53.6749708,22.2569909 L42.9884756,22.2569909 M93.209986,22.2569909 L90.2950312,22.2569909 M65.1483199,22.2569909 L62.9533238,22.2569909 M290.538043,22.2569909 L292.513958,22.2569909 M71.4172287,22.2569909 L67.9470444,22.2569909 M2.61309057,25.0850918 L35.4059139,25.0850918 M293.241442,25.0850918 L260.792292,25.0850918 M255.139655,25.0850918 L252.864385,25.0850918 M237.501921,25.0850918 L229.42099,25.0850918 M255.910621,25.0850918 L258.000257,25.0850918 M115.76033,25.0850918 L149.748068,25.0850918 M57.4620707,25.0850918 L42.4600042,25.0850918 M75.8164189,25.0850918 L78.4487418,25.0850918 M86.4151143,25.0850918 L84.2226268,25.0850918 M252.085893,25.0850918 L247.736874,25.0850918 M73.0377629,25.0850918 L67.8542274,25.0850918 M66.8048103,25.0850918 L61.7826592,25.0850918 M325.758323,25.0850918 L321.10744,25.0850918 M59.6863334,25.0850918 L60.6061413,25.0850918 M320.241148,27.9131927 L334.267382,27.9131927 M147.208562,27.9131927 L120.182098,27.9131927 M0.751733896,27.9131927 L37.9780312,27.9131927 M257.095501,27.9131927 L247.949266,27.9131927 M294.997439,27.9131927 L257.660765,27.9131927 M152.148766,27.9131927 L148.266341,27.9131927 M83.2785694,27.9131927 L99.9103683,27.9131927 M235.693244,27.9131927 L229.706967,27.9131927 M75.2076733,27.9131927 L76.4611206,27.9131927 M364.020659,27.9131927 L367,27.9131927 M68.6218489,27.9131927 L51.3946835,27.9131927 M71.22825,30.7421513 L72.9733764,30.7421513 M248.088073,30.7421513 L250.525564,30.7421513 M0,30.7421513 L37.6469004,30.7421513 M86.7788565,30.7421513 L86.3866839,30.7421513 M75.6909906,30.7421513 L78.7656575,30.7421513 M148.504655,30.7421513 L118.587485,30.7421513 M353.033972,30.7421513 L349.124788,30.7421513 M91.4748938,30.7421513 L104.891546,30.7421513 M341.494564,30.7421513 L253.116078,30.7421513 M237.843922,30.7421513 L240.860892,30.7421513 M68.5273596,30.7421513 L51.0041832,30.7421513 M193.632102,30.7421513 L196.141505,30.7421513 M210.719624,30.7421513 L212.427958,30.7421513 M198.090662,30.7421513 L207.701818,30.7421513 M117.562318,33.57111 L140.660366,33.57111 M42.7944798,33.57111 L55.2361357,33.57111 M104.431642,33.57111 L91.2315628,33.57111 M85.8398163,33.57111 L86.2737983,33.57111" id="Stroke-5"></path>
                    <path d="M227.732975,33.4017825 L247.274446,33.4017825 M188.188141,33.4017825 L190.820844,33.4017825 M210.119257,33.4017825 L192.223226,33.4017825 M223.673668,33.4017825 L220.472161,33.4017825 M73.3790755,33.4017825 L69.3180979,33.4017825 M356.009585,33.4017825 L253.808594,33.4017825 M0,33.4017825 L36.8403001,33.4017825 M80.9029928,33.4017825 L76.6290269,33.4017825 M85.6071117,36.0511359 L62.7388464,36.0511359 M191.420552,36.0511359 L208.970791,36.0511359 M247.097373,36.0511359 L221.690788,36.0511359 M253.601453,36.0511359 L364.671946,36.0511359 M56.7960542,36.0511359 L4.40927617,36.0511359 M91.476402,36.0511359 L110.830777,36.0511359 M372.894966,36.0511359 L369.838793,36.0511359 M119.351146,36.0511359 L136.934795,36.0511359 M149.535352,38.7004894 L160.563971,38.7004894 M92.3316963,38.7004894 L103.403749,38.7004894 M201.274812,38.7004894 L211.281088,38.7004894 M374,38.7004894 L365.867187,38.7004894 M189.24306,38.7004894 L197.872846,38.7004894 M85.6547208,38.7004894 L5.38568152,38.7004894 M134.890942,38.7004894 L120.167184,38.7004894 M360.874907,38.7004894 L216.678463,38.7004894 M214.51684,41.3498429 L202.957003,41.3498429 M183.49321,41.3498429 L195.38297,41.3498429 M122.632002,41.3498429 L132.749365,41.3498429 M149.167007,41.3498429 L159.007904,41.3498429 M361.310071,41.3498429 L214.982909,41.3498429 M6.42055426,41.3498429 L76.2556709,41.3498429 M83.6718412,41.3498429 L89.8710546,41.3498429 M102.397274,41.3498429 L93.1360405,41.3498429 M104.701725,41.3498429 L105.841839,41.3498429 M94.4432042,43.9991964 L105.105985,43.9991964 M363.119219,43.9991964 L348.811415,43.9991964 M4.882862,43.9991964 L79.6910474,43.9991964 M129.711567,43.9991964 L123.26512,43.9991964 M346.308175,43.9991964 L204.467132,43.9991964 M194.148473,43.9991964 L180.892246,43.9991964 M339.327169,46.6485499 L205.960556,46.6485499 M104.775227,46.6485499 L92.2623707,46.6485499 M180.067021,46.6485499 L193.489462,46.6485499 M356.225915,46.6485499 L348.494856,46.6485499 M79.9541507,46.6485499 L19.2107126,46.6485499 M6.39633205,46.6485499 L14.2159273,46.6485499 M351.380639,49.298707 L345.661693,49.298707 M193.187938,49.298707 L186.608686,49.298707 M326.168667,49.298707 L203.017976,49.298707 M5.83170415,49.298707 L11.6517148,49.298707 M20.3140757,49.298707 L80.2038899,49.298707 M337.465401,49.298707 L330.77005,49.298707 M111.907412,49.298707 L92.0485471,49.298707 M347.065746,51.9488641 L341.991612,51.9488641 M184.262473,51.9488641 L185.953851,51.9488641 M168.873857,51.9488641 L172.921471,51.9488641 M187.327,51.9488641 L193.106083,51.9488641 M91.967528,51.9488641 L113.878599,51.9488641 M199.141588,51.9488641 L196.955743,51.9488641 M319.738925,51.9488641 L200.761135,51.9488641 M3.06870253,51.9488641 L9.38401549,51.9488641 M80.9105101,51.9488641 L23.2073761,51.9488641 M316.794674,54.5982175 L195.927552,54.5982175 M28.116966,54.5982175 L83.8814885,54.5982175 M188.150555,54.5982175 L184.243263,54.5982175" id="Stroke-6"></path>
                    <path d="M345,54.3490808 L337.804592,54.3490808 M191.136478,54.3490808 L189.649383,54.3490808 M91.1434861,54.3490808 L114.118443,54.3490808 M170.87397,54.3490808 L167.439647,54.3490808 M1,54.3490808 L6.78083314,54.3490808 M168.93091,56.6509192 L171.772563,56.6509192 M111.187598,56.6509192 L90.1748736,56.6509192 M164.684686,56.6509192 L166.813633,56.6509192" id="Stroke-7"></path>
                    <path d="M316.661971,57.4190598 L192.990749,57.4190598 M323.16144,57.4190598 L325.813623,57.4190598 M183.79086,57.4190598 L186.23679,57.4190598 M35,57.4190598 L86.0135578,57.4190598 M343,57.4190598 L335.804426,57.4190598 M321.75842,60.1823403 L327.386303,60.1823403 M163.543121,60.1823403 L165.963269,60.1823403 M111.620552,60.1823403 L42.2088805,60.1823403 M173.321849,60.1823403 L168.27031,60.1823403 M319.670938,60.1823403 L181.196894,60.1823403 M340.689632,60.1823403 L336.448136,60.1823403 M39.6673093,62.9456208 L42.1930788,62.9456208 M319.71668,62.9456208 L174.184287,62.9456208 M111.817657,62.9456208 L47.0749579,62.9456208 M168.76432,62.9456208 L171.976214,62.9456208 M327.315612,62.9456208 L322.605888,62.9456208 M114.468177,62.9456208 L116.978144,62.9456208 M326.482283,65.7097394 L322.081938,65.7097394 M318.722839,65.7097394 L169.349813,65.7097394 M39.1766264,65.7097394 L43.7724125,65.7097394 M99.4931995,65.7097394 L47.3527344,65.7097394 M110.938586,65.7097394 L100.530287,65.7097394 M113.94589,65.7097394 L118.781196,65.7097394 M39.673131,68.4730199 L111.708709,68.4730199 M324.854712,68.4730199 L322.04285,68.4730199 M317.798858,68.4730199 L171.730872,68.4730199 M190.743588,71.2363004 L316.493143,71.2363004 M187.713829,71.2363004 L173.151358,71.2363004 M40.7992067,71.2363004 L109.744314,71.2363004 M328.727781,71.2363004 L321.343419,71.2363004 M193.071421,74.0004191 L311.127234,74.0004191 M42.319492,74.0004191 L103.965899,74.0004191 M191.072927,74.0004191 L186.294175,74.0004191 M177.170799,74.0004191 L164.600168,74.0004191 M195.089042,76.7636996 L197.643088,76.7636996 M174.84962,76.7636996 L164.514507,76.7636996 M44.0443672,76.7636996 L97.2485331,76.7636996 M320.962516,76.7636996 L319.390667,76.7636996 M201.027969,76.7636996 L300.214113,76.7636996 M309.555385,76.7636996 L301.844179,76.7636996 M197.248047,79.5269801 L192.555788,79.5269801 M172.562538,79.5269801 L165.817727,79.5269801 M309.090484,79.5269801 L302.911206,79.5269801 M201.941138,79.5269801 L297.503714,79.5269801 M187.254749,79.5269801 L189.927723,79.5269801 M45.7966874,79.5269801 L93.8195744,79.5269801 M320.753767,79.5269801 L318.174771,79.5269801 M317.143506,82.2910987 L313.889197,82.2910987 M302.273318,82.2910987 L206.647536,82.2910987 M47.378516,82.2910987 L93.3105948,82.2910987 M308.807718,82.2910987 L304.307573,82.2910987 M187.196532,82.2910987 L174.693266,82.2910987 M188.174572,85.0543792 L162.212456,85.0543792 M48.6351633,85.0543792 L93.5667479,85.0543792 M206.689119,85.0543792 L301.888257,85.0543792 M59.443494,87.8176597 L94.0582625,87.8176597 M49.8335939,87.8176597 L53.9603204,87.8176597 M192.648103,87.8176597 L205.273623,87.8176597 M206.786424,87.8176597 L301.422524,87.8176597 M189.950178,87.8176597 L158.87997,87.8176597 M51.1060428,90.5809402 L54.3037984,90.5809402 M300.87113,90.5809402 L231.415379,90.5809402 M80.8231306,90.5809402 L94.3044356,90.5809402 M76.1350296,90.5809402 L61.4469772,90.5809402" id="Stroke-8"></path>
                    <path d="M224.723188,90.4190495 L157.28947,90.4190495 M52,93.1822619 L55.9687549,93.1822619 M72.3437354,93.1822619 L62.448184,93.1822619 M300.84603,93.1822619 L239.729546,93.1822619 M227.094241,93.1822619 L156.391546,93.1822619 M83.3487323,93.1822619 L93.2058252,93.1822619 M298.618778,95.9463124 L245.605343,95.9463124 M53.765749,95.9463124 L58.3481685,95.9463124 M228.627566,95.9463124 L155.90747,95.9463124 M77.0641041,95.9463124 L63.8301835,95.9463124 M155.679227,98.7103628 L237.661145,98.7103628 M301.57507,98.7103628 L300.318479,98.7103628 M81.6607365,98.7103628 L65.2740512,98.7103628 M291.51398,98.7103628 L296.567934,98.7103628 M287.663945,98.7103628 L248.229721,98.7103628 M85.3017577,98.7103628 L91.3665033,98.7103628 M235.65294,101.474413 L155.614015,101.474413 M263.894054,101.474413 L249.462066,101.474413 M98.5799891,101.474413 L104.077889,101.474413 M270.549891,101.474413 L286.90397,101.474413 M96.1963952,101.474413 L94.0828473,101.474413 M66.9444898,101.474413 L83.1087844,101.474413 M294.201898,101.474413 L289.185565,101.474413 M261.579017,104.236788 L250.861623,104.236788 M287.092919,104.236788 L272.926797,104.236788 M69.1642168,104.236788 L81.2644463,104.236788 M302.863431,104.236788 L300.714769,104.236788 M98.2748289,104.236788 L105.826917,104.236788 M156.544544,104.236788 L232.556191,104.236788 M260.146018,107 L252.384916,107 M287.959908,107 L277.454872,107 M302.822465,107 L300.022515,107 M157.710841,107 L228.809827,107 M73.0426777,107 L82.1941398,107 M254.089633,109.763212 L259.057474,109.763212 M306.310488,109.763212 L301.126944,109.763212 M76.9328434,109.763212 L93.8487517,109.763212 M281.565757,109.763212 L288.830242,109.763212 M158.974957,109.763212 L226.264874,109.763212 M80.746928,112.526425 L109.846671,112.526425 M297.574545,112.526425 L300.504083,112.526425 M304.614131,112.526425 L302.476338,112.526425 M289.184729,112.526425 L282.625039,112.526425 M256.295147,112.526425 L258.118584,112.526425 M160.341072,112.526425 L228.34916,112.526425 M307.247706,115.290475 L302.864267,115.290475 M161.875233,115.290475 L228.504666,115.290475 M284.485262,115.290475 L286.092161,115.290475 M86.1495178,115.290475 L113.248581,115.290475 M258.200517,115.290475 L260.589963,115.290475 M183.876867,118.053688 L226.684574,118.053688 M280.71298,118.053688 L282.655137,118.053688 M300.106957,118.053688 L297.063715,118.053688 M90.5822834,118.053688 L115.685682,118.053688 M306.754433,118.053688 L305.393335,118.053688 M173.964594,118.053688 L164.093288,118.053688 M276.557785,120.817738 L280.089283,120.817738 M299.082789,120.817738 L291.51398,120.817738 M185.339963,120.817738 L223.58448,120.817738 M90.1776326,120.817738 L117.724821,120.817738 M283.956039,120.817738 L281.581642,120.817738 M307.402376,123.580951 L310,123.580951 M288.946454,123.580951 L299.474063,123.580951 M278.030915,123.580951 L282.702792,123.580951" id="Stroke-9"></path>
                    <path d="M185.655658,123.416179 L219.978575,123.416179 M90,123.416179 L119.378479,123.416179 M217.437034,126.160467 L186.003105,126.160467 M319.679151,126.160467 L312.42703,126.160467 M297.856808,126.160467 L289.229099,126.160467 M279.5674,126.160467 L284.449197,126.160467 M90.2731134,126.160467 L122.636629,126.160467 M301.742201,126.160467 L299.458739,126.160467 M303.209663,128.904754 L301.543421,128.904754 M216.16501,128.904754 L186.261185,128.904754 M299.035288,128.904754 L300.749137,128.904754 M284.93863,128.904754 L282.30438,128.904754 M91.7263771,128.904754 L129.500377,128.904754 M317.454989,128.904754 L327.483344,128.904754 M216.059774,131.649042 L186.465811,131.649042 M318.81805,131.649042 L331.213388,131.649042 M93.4418965,131.649042 L134.676168,131.649042 M285.02048,131.649042 L294.164349,131.649042 M332.633243,134.394994 L321.748799,134.394994 M95.2225623,134.394994 L137.717999,134.394994 M216.500764,134.394994 L186.643711,134.394994 M288.397231,134.394994 L295.514047,134.394994 M304.786538,134.394994 L307.356476,134.394994 M300.654759,134.394994 L302.523121,134.394994 M96.9372465,137.139281 L137.12333,137.139281 M317.395689,137.139281 L312.833777,137.139281 M216.797263,137.139281 L186.806577,137.139281 M216.56424,139.884401 L186.976124,139.884401 M98.4381171,139.884401 L132.877963,139.884401 M319.974815,139.884401 L311.368821,139.884401 M226.827289,139.884401 L223.698596,139.884401 M326.363329,139.884401 L322.000197,139.884401 M226.713701,142.627856 L222.072444,142.627856 M326.071841,142.627856 L304.365593,142.627856 M99.5765071,142.627856 L131.600093,142.627856 M215.560319,142.627856 L187.172398,142.627856 M226.479842,145.372976 L220.929878,145.372976 M100.236322,145.372976 L130.385699,145.372976 M328.613382,145.372976 L301.748047,145.372976 M187.443006,145.372976 L214.483734,145.372976 M220.107197,148.116431 L225.985398,148.116431 M187.903206,148.116431 L213.326135,148.116431 M330.945286,148.116431 L296.099529,148.116431 M349,148.116431 L346.253833,148.116431 M100.351581,148.116431 L129.160447,148.116431 M224.250669,150.860719 L219.671218,150.860719 M99.9790779,150.860719 L127.886753,150.860719 M211.996482,150.860719 L188.530448,150.860719 M332.933919,150.860719 L293.780988,150.860719 M334.456505,153.605838 L294.390691,153.605838 M99.5714958,153.605838 L126.529539,153.605838 M208.380862,153.605838 L189.322226,153.605838 M207.337686,156.350126 L190.313619,156.350126 M335.332639,156.350126 L292.442983,156.350126 M99.1756067,156.350126 L125.013634,156.350126 M98.7822233,159.095246 L123.110193,159.095246 M191.582302,159.095246 L206.214329,159.095246 M335.375235,159.095246 L293.056862,159.095246 M193.35044,161.839533 L204.582331,161.839533 M319.393509,161.839533 L333.403306,161.839533 M98.3921806,161.839533 L115.334396,161.839533 M294.136787,161.839533 L315.114733,161.839533 M306.677451,164.583821 L295.110641,164.583821 M323.87023,164.583821 L330.476733,164.583821" id="Stroke-10"></path>
                    <path d="M98.1713436,164.413109 L112.638479,164.413109 M97.7820073,167.137979 L110.848533,167.137979 M326.517479,167.137979 L327.173598,167.137979 M360.672357,167.137979 L356.918222,167.137979 M97.392671,169.861195 L110.292457,169.861195 M361,169.861195 L356.583076,169.861195 M329.791405,172.586891 L325.828012,172.586891 M97,172.586891 L105.857192,172.586891" id="Stroke-11"></path>
                    <path d="M356,175.408988 L351.480535,175.408988 M107.012968,175.408988 L99.1601271,175.408988 M329.014813,175.408988 L326.987468,175.408988 M353.992645,178.105856 L348.785182,178.105856 M105.226338,178.105856 L98.1539506,178.105856 M105.558677,180.802723 L96,180.802723 M106.380776,183.500409 L96.7296445,183.500409 M96.885402,186.197277 L107.207873,186.197277 M97.9190651,188.893326 L107.710128,188.893326 M99.793985,191.591012 L106.333299,191.591012" id="Stroke-12"></path>
                </g>
            </g>
        </g>
    </g>
</svg>
