<?xml version="1.0" encoding="UTF-8"?>
<svg xmlns:xlink="http://www.w3.org/1999/xlink" width="375px" height="400px" viewBox="0 0 375 400" version="1.1" xmlns="http://www.w3.org/2000/svg">
    <!-- Generator: Sketch 53.2 (72643) - https://sketchapp.com -->
    <title>Rectangle 19</title>
    <desc>Created with Sketch.</desc>
    <defs>
        <path d="M0,114 L375,114 L374.999859,468.512394 L371.301735,464.530792 C368.450037,461.460498 363.649315,461.283291 360.579021,464.134988 C360.206627,464.480869 359.869929,464.863292 359.574,465.276495 L358.27239,467.093924 C356.664527,469.338972 353.541126,469.855512 351.296079,468.247649 C350.83803,467.919603 350.438719,467.5165 350.115017,467.05537 L348.816221,465.205173 C346.810329,462.347683 342.867779,461.657327 340.010289,463.663219 C339.387017,464.100741 338.847926,464.647279 338.418995,465.276495 L337.34302,466.854886 C335.787606,469.136585 332.677011,469.725355 330.395313,468.16994 C329.897634,467.830677 329.465348,467.404283 329.119288,466.911305 L327.921613,465.205165 C325.915714,462.347674 321.973157,461.657322 319.115665,463.663221 C318.492395,464.100744 317.953306,464.647281 317.524376,465.276495 L316.448408,466.854877 C314.892994,469.136575 311.782399,469.725345 309.500701,468.169931 C309.003019,467.830666 308.570733,467.404269 308.224672,466.911289 L307.027017,465.205173 C305.021125,462.347683 301.078575,461.657327 298.221085,463.663219 C297.597813,464.100741 297.058722,464.647279 296.629791,465.276495 L295.553816,466.854886 C293.998402,469.136585 290.887808,469.725355 288.606109,468.16994 C288.10843,467.830677 287.676145,467.404283 287.330085,466.911305 L286.13241,465.205165 C284.12651,462.347674 280.183953,461.657322 277.326462,463.663221 C276.703192,464.100744 276.164103,464.647281 275.735173,465.276495 L274.659201,466.854881 C273.103787,469.13658 269.993192,469.72535 267.711494,468.169936 C267.213814,467.830671 266.781527,467.404276 266.435467,466.911297 L265.237802,465.205169 C263.231907,462.347678 259.289353,461.657324 256.431862,463.66322 C255.808591,464.100743 255.269501,464.64728 254.840571,465.276495 L253.764599,466.854881 C252.209185,469.13658 249.098591,469.72535 246.816892,468.169936 C246.319212,467.830671 245.886926,467.404276 245.540865,466.911297 L244.343201,465.205169 C242.337305,462.347678 238.394751,461.657324 235.537261,463.66322 C234.913989,464.100743 234.3749,464.64728 233.945969,465.276495 L232.869997,466.854881 C231.314583,469.13658 228.203989,469.72535 225.92229,468.169936 C225.42461,467.830671 224.992324,467.404276 224.646263,466.911297 L223.448599,465.205169 C221.442703,462.347678 217.500149,461.657324 214.642659,463.66322 C214.019388,464.100743 213.480298,464.64728 213.051367,465.276495 L211.975395,466.854881 C210.419981,469.13658 207.309387,469.72535 205.027688,468.169936 C204.530008,467.830671 204.097722,467.404276 203.751662,466.911297 L202.466406,465.080392 C200.546976,462.346075 196.774368,461.685479 194.040051,463.60491 C193.401423,464.053213 192.85556,464.620838 192.432553,465.276495 L191.479606,466.753553 C189.982558,469.073964 186.887895,469.741431 184.567484,468.244382 C184.061359,467.917848 183.618398,467.502552 183.259947,467.018507 L181.811599,465.06269 C179.68221,462.187211 175.624964,461.582386 172.749485,463.711774 C172.164218,464.145184 171.656216,464.674172 171.24684,465.276495 L170.183929,466.840377 C168.631681,469.124231 165.521907,469.717314 163.238053,468.165066 C162.737976,467.825183 162.303695,467.397414 161.956296,466.902529 L160.764779,465.205161 C158.758882,462.347673 154.81633,461.657323 151.958843,463.66322 C151.335572,464.100743 150.796483,464.64728 150.367553,465.276495 L149.291585,466.854878 C147.736173,469.136578 144.625579,469.72535 142.343879,468.169938 C141.846199,467.830674 141.413912,467.404279 141.067852,466.9113 L139.870177,465.205161 C137.864281,462.347673 133.921729,461.657323 131.064241,463.66322 C130.440971,464.100743 129.901881,464.64728 129.472952,465.276495 L128.396983,466.854878 C126.841571,469.136578 123.730977,469.72535 121.449278,468.169938 C120.951597,467.830674 120.519311,467.404279 120.17325,466.9113 L118.975577,465.205163 C116.969679,462.347673 113.027124,461.657322 110.169635,463.663221 C109.546364,464.100743 109.007275,464.647281 108.578346,465.276495 L107.450072,466.931605 C105.894659,469.213304 102.784065,469.802075 100.502366,468.246662 C100.021518,467.918873 99.6015849,467.509656 99.2614773,467.037441 L97.8505835,465.078514 C95.8283248,462.27075 91.9128179,461.633973 89.1050541,463.656232 C88.4918685,464.097871 87.9636367,464.646798 87.5458761,465.276495 L86.5865481,466.722505 C85.059944,469.023579 81.9569979,469.651411 79.655924,468.124807 C79.1364089,467.780144 78.685935,467.341362 78.3277334,466.831087 L77.1863705,465.205165 C75.1804742,462.347676 71.2379214,461.657324 68.3804323,463.66322 C67.7571616,464.100743 67.218072,464.64728 66.7891419,465.276495 L65.6381959,466.964865 C64.0827828,469.246564 60.9721886,469.835335 58.6904895,468.279922 C58.2170272,467.957167 57.8025672,467.555429 57.4652132,467.092256 L55.9580315,465.022957 C53.9291614,462.237401 50.0262983,461.623987 47.2407428,463.652857 C46.6318426,464.096351 46.1082803,464.646438 45.695394,465.276495 L44.7872374,466.662326 C43.2736729,468.971997 40.1743275,469.61737 37.8646558,468.103805 C37.3352448,467.756874 36.8765207,467.312577 36.5128548,466.794518 L35.3971633,465.205166 C33.3912663,462.347676 29.4487122,461.657323 26.5912222,463.66322 C25.9679516,464.100743 25.428862,464.64728 24.9999319,465.276495 L23.92396,466.854882 C22.3685464,469.136581 19.2579522,469.725351 16.9762533,468.169937 C16.4785733,467.830673 16.0462873,467.404278 15.7002269,466.9113 L14.5526289,465.276495 C12.278316,462.036635 7.80819523,461.253904 4.56833471,463.528217 C4.07933965,463.871481 3.63518265,464.274539 3.24619872,464.728012 L5.83846581e-13,468.512394 L0,114 Z" id="path-1"></path>
        <filter x="-9.7%" y="-9.1%" width="119.5%" height="119.9%" filterUnits="objectBoundingBox" id="filter-2">
            <feOffset dx="0" dy="4" in="SourceAlpha" result="shadowOffsetOuter1"></feOffset>
            <feGaussianBlur stdDeviation="11.5" in="shadowOffsetOuter1" result="shadowBlurOuter1"></feGaussianBlur>
            <feColorMatrix values="0 0 0 0 0   0 0 0 0 0   0 0 0 0 0  0 0 0 0.10583673 0" type="matrix" in="shadowBlurOuter1"></feColorMatrix>
        </filter>
    </defs>
    <g id="LineUp-Mobile-nouveau-design" stroke="none" stroke-width="1" fill="none" fill-rule="evenodd">
        <g id="Prendre-ticket" transform="translate(0.000000, -95.000000)">
            <g id="Rectangle-19">
                <use fill="black" fill-opacity="1" filter="url(#filter-2)" xlink:href="#path-1"></use>
                <use fill="#FFFFFF" fill-rule="evenodd" xlink:href="#path-1"></use>
            </g>
        </g>
    </g>
</svg>
