<?xml version="1.0" encoding="UTF-8"?>
<svg xmlns:xlink="http://www.w3.org/1999/xlink" width="322px" height="198px" viewBox="0 0 322 198" version="1.1" xmlns="http://www.w3.org/2000/svg">
    <!-- Generator: Sketch 53.2 (72643) - https://sketchapp.com -->
    <title>Group 8</title>
    <desc>Created with Sketch.</desc>
    <defs>
        <linearGradient x1="122.095285%" y1="19.5464381%" x2="-38.1639344%" y2="93.4466613%" id="linearGradient-1">
            <stop stop-color="#910D33" offset="0%"></stop>
            <stop stop-color="#CB1146" offset="100%"></stop>
        </linearGradient>
        <rect id="path-2" x="0" y="0" width="289" height="145" rx="8"></rect>
        <filter x="-8.1%" y="-14.8%" width="116.3%" height="132.4%" filterUnits="objectBoundingBox" id="filter-4">
            <feOffset dx="0" dy="2" in="SourceAlpha" result="shadowOffsetOuter1"></feOffset>
            <feGaussianBlur stdDeviation="7.5" in="shadowOffsetOuter1" result="shadowBlurOuter1"></feGaussianBlur>
            <feColorMatrix values="0 0 0 0 0.568627451   0 0 0 0 0.0509803922   0 0 0 0 0.2  0 0 0 0.28 0" type="matrix" in="shadowBlurOuter1"></feColorMatrix>
        </filter>
    </defs>
    <g id="LineUp-Mobile-nouveau-design" stroke="none" stroke-width="1" fill="none" fill-rule="evenodd">
        <g id="Prendre-ticket" transform="translate(-53.000000, -178.000000)">
            <g id="Group-8" transform="translate(68.000000, 158.939324)">
                <g id="Rectangle-3" transform="translate(0.000000, 55.060676)">
                    <g id="Rectangle-2">
                        <mask id="mask-3" fill="white">
                            <use xlink:href="#path-2"></use>
                        </mask>
                        <g id="Rectangle">
                            <use fill="black" fill-opacity="1" filter="url(#filter-4)" xlink:href="#path-2"></use>
                            <use fill="url(#linearGradient-1)" fill-rule="evenodd" xlink:href="#path-2"></use>
                        </g>
                    </g>
                </g>
                <g id="Action/ic_receipt" opacity="0.200000003" transform="translate(259.439324, 94.500000) rotate(-31.000000) translate(-259.439324, -94.500000) translate(190.939324, 26.000000)">
                    <g id="ic_receipt">
                        <polygon id="Bounds" points="0 0 137 0 137 137 0 137"></polygon>
                        <path d="M102.75,97.0416667 L34.25,97.0416667 L34.25,85.625 L102.75,85.625 L102.75,97.0416667 L102.75,97.0416667 Z M102.75,74.2083333 L34.25,74.2083333 L34.25,62.7916667 L102.75,62.7916667 L102.75,74.2083333 L102.75,74.2083333 Z M102.75,51.375 L34.25,51.375 L34.25,39.9583333 L102.75,39.9583333 L102.75,51.375 L102.75,51.375 Z M17.125,125.583333 L25.6875,117.020833 L34.25,125.583333 L42.8125,117.020833 L51.375,125.583333 L59.9375,117.020833 L68.5,125.583333 L77.0625,117.020833 L85.625,125.583333 L94.1875,117.020833 L102.75,125.583333 L111.3125,117.020833 L119.875,125.583333 L119.875,11.4166667 L111.3125,19.9791667 L102.75,11.4166667 L94.1875,19.9791667 L85.625,11.4166667 L77.0625,19.9791667 L68.5,11.4166667 L59.9375,19.9791667 L51.375,11.4166667 L42.8125,19.9791667 L34.25,11.4166667 L25.6875,19.9791667 L17.125,11.4166667 L17.125,125.583333 L17.125,125.583333 Z" id="Icon" fill="#FFFFFF"></path>
                    </g>
                </g>
            </g>
        </g>
    </g>
</svg>
